<svg width="40" height="40" viewBox="0 0 40 40" fill="none" xmlns="http://www.w3.org/2000/svg">
<path d="M25.669 26.268C25.0201 26.2761 24.3755 26.1617 23.769 25.931C23.2256 25.7197 22.7346 25.3928 22.33 24.973C21.9314 24.544 21.6236 24.0389 21.425 23.488C21.2069 22.8786 21.0989 22.2352 21.106 21.588C21.1014 20.9519 21.2125 20.3203 21.434 19.724C21.6405 19.168 21.9583 18.6599 22.368 18.231C22.7788 17.8074 23.2696 17.4695 23.812 17.237C24.3995 16.9885 25.0322 16.8649 25.67 16.874C26.3555 16.8594 27.0343 17.0103 27.649 17.314C28.1977 17.5954 28.6735 18.0004 29.039 18.497C29.4077 19.0043 29.6737 19.5787 29.822 20.188C29.9838 20.8357 30.0416 21.5051 29.993 22.171H23.562C23.5364 22.8035 23.7532 23.4219 24.168 23.9C24.6038 24.2823 25.1736 24.4758 25.752 24.438C26.2063 24.4486 26.6527 24.3183 27.03 24.065C27.3295 23.8822 27.5594 23.6044 27.683 23.276H29.838C29.5938 24.2047 29.0319 25.0185 28.25 25.576C27.4761 26.0547 26.5786 26.2953 25.669 26.268ZM25.6 18.724C25.264 18.7114 24.9299 18.78 24.626 18.924C24.3884 19.0438 24.1775 19.2105 24.006 19.414C23.8551 19.5989 23.7435 19.8126 23.678 20.042C23.6203 20.2332 23.583 20.43 23.567 20.629H27.549C27.5203 20.1104 27.3226 19.6156 26.986 19.22C26.6135 18.8684 26.111 18.6885 25.6 18.724ZM15.97 26.036H10V13.731H15.8C16.3373 13.7263 16.8736 13.7783 17.4 13.886C17.8459 13.9731 18.2707 14.1456 18.651 14.394C18.9945 14.6324 19.2702 14.956 19.451 15.333C19.6507 15.7871 19.7463 16.2802 19.731 16.776C19.7527 17.3246 19.6073 17.8669 19.314 18.331C18.9931 18.7741 18.5594 19.1232 18.058 19.342C18.7393 19.5123 19.3382 19.9187 19.748 20.489C20.1287 21.0758 20.3213 21.7648 20.3 22.464C20.3145 23.0232 20.1916 23.5774 19.942 24.078C19.7117 24.522 19.3776 24.9038 18.968 25.191C18.5434 25.4864 18.0692 25.7032 17.568 25.831C17.0448 25.9684 16.506 26.0377 15.965 26.037L15.97 26.036ZM12.71 20.553V23.943H15.6C15.8554 23.9458 16.1103 23.9199 16.36 23.866C16.5886 23.8219 16.8061 23.7328 17 23.604C17.1867 23.4812 17.3383 23.312 17.44 23.113C17.5579 22.8634 17.6135 22.5888 17.602 22.313C17.6505 21.8011 17.4521 21.2968 17.068 20.955C16.6535 20.6697 16.1565 20.5291 15.654 20.555L12.71 20.553ZM12.71 15.828V18.703H15.452C15.8762 18.7197 16.2943 18.5987 16.644 18.358C16.9736 18.0843 17.1472 17.6657 17.108 17.239C17.1164 16.9941 17.0642 16.7509 16.956 16.531C16.8582 16.3533 16.7141 16.2054 16.539 16.103C16.3546 15.9936 16.1509 15.9207 15.939 15.888C15.7082 15.8447 15.4738 15.8243 15.239 15.827L12.71 15.828ZM28.051 15.772H23.061V14.557H28.051V15.771V15.772Z" fill="#071B61"/>
</svg>
