<svg width="40" height="40" viewBox="0 0 40 40" fill="none" xmlns="http://www.w3.org/2000/svg">
<path d="M10.002 20.002C10.0032 24.9214 13.5804 29.11 18.439 29.881V22.892H15.902V20.002H18.442V17.802C18.3285 16.7595 18.6845 15.7206 19.4136 14.9669C20.1428 14.2133 21.1694 13.823 22.215 13.902C22.9655 13.9141 23.7142 13.981 24.455 14.102V16.561H23.191C22.7558 16.504 22.3184 16.6477 22.0018 16.9517C21.6852 17.2556 21.5238 17.6869 21.563 18.124V20.002H24.334L23.891 22.893H21.563V29.881C26.8175 29.0506 30.5021 24.2518 29.9475 18.9611C29.3929 13.6704 24.7933 9.73993 19.4808 10.0172C14.1684 10.2944 10.0028 14.6823 10.002 20.002Z" fill="#071B61"/>
</svg>
